<svg width="21" height="13" viewBox="0 0 21 13" fill="none" xmlns="http://www.w3.org/2000/svg">
<path d="M20.806 11.115C20.806 11.032 20.723 11.032 20.723 10.949C20.3909 10.2848 19.6437 9.45456 18.6474 8.54131C18.1493 8.12619 17.9002 7.7941 17.7342 7.62805C17.4851 7.29596 17.4851 7.0469 17.5681 6.7148C17.6511 6.46574 17.9832 6.05061 18.5644 5.3034C18.8965 4.88829 19.0625 4.63923 19.3116 4.39016C20.5569 2.7297 21.1381 1.6504 20.972 1.15226L20.889 1.06924C20.806 0.98622 20.723 0.9032 20.5569 0.9032C20.3909 0.820177 20.1418 0.820177 19.8928 0.9032H16.7379C16.6549 0.9032 16.6549 0.9032 16.4888 0.9032C16.4058 0.9032 16.3228 0.9032 16.3228 0.9032H16.2398H16.1567L16.0737 0.986215C15.9907 1.06924 15.9907 1.06924 15.9907 1.15226C15.6586 2.06551 15.2435 2.81272 14.8284 3.64295C14.5793 4.05806 14.3302 4.47318 14.0812 4.80527C13.8321 5.13737 13.666 5.38643 13.5 5.55248C13.3339 5.71852 13.1679 5.80154 13.0849 5.96759C13.0018 6.05061 12.8358 6.13364 12.8358 6.05062C12.7528 6.05062 12.6698 6.05061 12.6698 5.96759C12.5867 5.88457 12.5037 5.80154 12.4207 5.71852C12.3377 5.6355 12.3377 5.46945 12.2546 5.3034C12.2546 5.13736 12.2546 4.97131 12.2546 4.88829C12.2546 4.80527 12.2546 4.55621 12.2546 4.39016C12.2546 4.14109 12.2546 3.97504 12.2546 3.89202C12.2546 3.64295 12.2546 3.31086 12.2546 2.97877C12.2546 2.64668 12.2546 2.3976 12.2546 2.23156C12.2546 2.06551 12.2546 1.81645 12.2546 1.6504C12.2546 1.40133 12.2546 1.23528 12.2546 1.15226C12.2546 1.06924 12.1716 0.903195 12.1716 0.820172C12.0886 0.737149 12.0056 0.654123 11.9226 0.5711C11.8395 0.488077 11.6735 0.48808 11.5905 0.405057C11.1754 0.322034 10.6772 0.239014 10.0961 0.239014C8.7677 0.239014 7.85444 0.322039 7.52235 0.488085C7.3563 0.571108 7.19026 0.654126 7.10723 0.820172C6.94119 0.986217 6.94118 1.06924 7.02421 1.06924C7.43932 1.15227 7.77142 1.3183 7.93746 1.56737L8.02049 1.73343C8.10351 1.81645 8.1035 1.98249 8.18652 2.23156C8.26954 2.48063 8.26955 2.7297 8.26955 3.06179C8.26955 3.55993 8.26955 4.05807 8.26955 4.39016C8.26955 4.80527 8.18652 5.05434 8.18652 5.3034C8.18652 5.55247 8.10351 5.71852 8.02049 5.80155C7.93747 5.96759 7.93746 6.05062 7.85443 6.05062C7.85443 6.05062 7.85443 6.13363 7.77141 6.13363C7.68838 6.13363 7.60537 6.21666 7.43932 6.21666C7.3563 6.21666 7.19026 6.13364 7.10723 6.05062C6.94119 5.9676 6.77514 5.80155 6.69212 5.6355C6.52607 5.46946 6.36002 5.22038 6.19398 4.88829C6.02793 4.5562 5.77885 4.22411 5.61281 3.72597L5.44678 3.39389C5.36375 3.22784 5.19771 2.89574 5.03166 2.48063C4.86561 2.06552 4.69956 1.73343 4.53352 1.31831C4.4505 1.15227 4.36748 1.06924 4.28446 0.986215H4.20143C4.20143 0.986215 4.1184 0.9032 4.03538 0.9032C3.95235 0.9032 3.86934 0.820172 3.78632 0.820172H0.797487C0.465395 0.820172 0.299352 0.903192 0.216329 0.986215L0.133301 1.06924C0.133301 1.06924 0.133301 1.15226 0.133301 1.23529C0.133301 1.31831 0.133306 1.40133 0.216329 1.56737C0.631443 2.56365 1.12958 3.55993 1.62772 4.5562C2.12585 5.46946 2.624 6.29969 2.95609 6.88085C3.3712 7.46201 3.70329 8.04317 4.1184 8.54131C4.53352 9.03944 4.78258 9.37153 4.8656 9.53758C5.03165 9.70362 5.11467 9.78664 5.19769 9.86967L5.44678 10.1187C5.61282 10.2848 5.86189 10.5339 6.19398 10.7829C6.52607 11.032 6.94118 11.2811 7.35629 11.5301C7.77141 11.7792 8.26956 11.9452 8.76769 12.1113C9.34885 12.2773 9.84698 12.3604 10.3451 12.2773H11.5905C11.8395 12.2773 12.0056 12.1943 12.1716 12.0283L12.2546 11.9452C12.2546 11.8622 12.3377 11.8622 12.3377 11.7792C12.3377 11.6962 12.3377 11.6132 12.3377 11.4471C12.3377 11.115 12.3377 10.8659 12.4207 10.6169C12.5037 10.3678 12.5037 10.2018 12.5868 10.0357C12.6698 9.86968 12.7528 9.78664 12.8358 9.70362C12.9188 9.6206 13.0019 9.53758 13.0019 9.53758H13.0849C13.2509 9.45456 13.5 9.53758 13.666 9.70362C13.9151 9.86967 14.1642 10.1187 14.3302 10.3678C14.4963 10.6169 14.7453 10.8659 15.0774 11.198C15.4095 11.5301 15.6586 11.7792 15.8246 11.8622L16.0737 12.0283C16.2397 12.1113 16.4058 12.1943 16.6549 12.2773C16.9039 12.3604 17.07 12.3604 17.236 12.3604L20.0588 12.2773C20.3079 12.2773 20.5569 12.1943 20.723 12.1113C20.889 12.0283 20.972 11.9452 20.972 11.7792C20.972 11.6962 20.972 11.5301 20.972 11.4471C20.806 11.2811 20.806 11.198 20.806 11.115Z" fill="white"/>
</svg>
