<svg width="17" height="17" viewBox="0 0 17 17" fill="none" xmlns="http://www.w3.org/2000/svg">
<path d="M14.5808 0.000244141H2.41923C1.04615 0.000244141 0 1.0464 0 2.41948V14.581C0 15.9541 1.04615 17.0002 2.41923 17.0002H14.5808C15.9538 17.0002 17 15.9541 17 14.581V2.41948C17 1.0464 15.9538 0.000244141 14.5808 0.000244141ZM8.5 13.6002C11.3115 13.6002 13.6 11.3772 13.6 8.6964C13.6 8.2387 13.5346 7.71563 13.4038 7.32332H14.8423V14.2541C14.8423 14.581 14.5808 14.9079 14.1885 14.9079H2.81154C2.48462 14.9079 2.15769 14.6464 2.15769 14.2541V7.25794H3.66154C3.53077 7.71563 3.46539 8.17332 3.46539 8.63101C3.4 11.3772 5.68846 13.6002 8.5 13.6002ZM8.5 11.6387C6.66923 11.6387 5.23077 10.2002 5.23077 8.43486C5.23077 6.66948 6.66923 5.23101 8.5 5.23101C10.3308 5.23101 11.7692 6.66948 11.7692 8.43486C11.7692 10.2656 10.3308 11.6387 8.5 11.6387ZM14.7769 4.64255C14.7769 5.03486 14.45 5.36178 14.0577 5.36178H12.2269C11.8346 5.36178 11.5077 5.03486 11.5077 4.64255V2.87717C11.5077 2.48486 11.8346 2.15794 12.2269 2.15794H14.0577C14.45 2.15794 14.7769 2.48486 14.7769 2.87717V4.64255Z" fill="white"/>
</svg>
